<svg xmlns="http://www.w3.org/2000/svg" width="1200" height="360" viewBox="0 0 1200 360">
  <defs><linearGradient id="bg" x1="0" y1="0" x2="1" y2="1"><stop stop-color="#eef8ff"/><stop offset="1" stop-color="#f5f0ff"/></linearGradient><linearGradient id="line" x1="0" x2="1"><stop stop-color="#0891b2"/><stop offset="1" stop-color="#7c3aed"/></linearGradient><pattern id="grid" width="32" height="32" patternUnits="userSpaceOnUse"><path d="M32 0H0V32" fill="none" stroke="#0f172a" stroke-opacity=".05"/></pattern></defs>
  <rect width="1200" height="360" rx="22" fill="url(#bg)"/><rect width="1200" height="360" rx="22" fill="url(#grid)"/>
  <rect x="34" y="30" width="1132" height="300" rx="14" fill="#ffffff" stroke="#cbd5e1"/>
  <circle cx="66" cy="58" r="7" fill="#ff5f56"/><circle cx="90" cy="58" r="7" fill="#ffbd2e"/><circle cx="114" cy="58" r="7" fill="#27c93f"/>
  <text x="600" y="64" text-anchor="middle" fill="#64748b" font-family="monospace" font-size="15">profile.sh --live</text>
  <text x="74" y="120" fill="#0891b2" font-family="monospace" font-size="21">bruno@neadev</text><text x="245" y="120" fill="#64748b" font-family="monospace" font-size="21">:</text><text x="260" y="120" fill="#7c3aed" font-family="monospace" font-size="21">~/backend</text><text x="385" y="120" fill="#0f172a" font-family="monospace" font-size="21">$ ./whoami</text>
  <text x="74" y="172" fill="#0f172a" font-family="monospace" font-size="38" font-weight="700">BRUNO CAMORS</text>
  <rect x="74" y="191" width="530" height="3" rx="2" fill="url(#line)"/>
  <text x="74" y="235" fill="#334155" font-family="monospace" font-size="22">Backend Developer · Python · Django</text>
  <text x="74" y="274" fill="#64748b" font-family="monospace" font-size="17">architecture / databases / cloud / clean code</text>
  <text x="74" y="307" fill="#0891b2" font-family="monospace" font-size="17">status:</text><text x="150" y="307" fill="#15803d" font-family="monospace" font-size="17">building solutions that ship</text>
  <rect x="446" y="292" width="10" height="20" fill="#7c3aed"><animate attributeName="opacity" values="1;0;1" dur="1.1s" repeatCount="indefinite"/></rect>
</svg>
